<mxfile host="app.diagrams.net" modified="2024-05-15T17:26:36.549Z" agent="Mozilla/5.0 (Macintosh; Intel Mac OS X 10_15_7) AppleWebKit/605.1.15 (KHTML, like Gecko) Version/17.1 Safari/605.1.15" version="24.4.0" etag="Eb-zN10VVaOg7bo5WbGK" type="github">
  <diagram name="Sayfa -1" id="Dl2G7QAXmfMtYYSx4ZDs">
    <mxGraphModel>
      <root>
        <mxCell id="0" />
        <mxCell id="1" parent="0" />
      </root>
    </mxGraphModel>
  </diagram>
</mxfile>
